<svg width="512" height="512" viewBox="0 0 512 512" fill="none" xmlns="http://www.w3.org/2000/svg">
<rect width="512" height="512" rx="5" fill="#FC5B3C"/>
<path d="M346.534 232.661C349.777 233.405 351.915 236.51 351.386 239.794C347.969 260.99 342.493 281.487 335.155 301.088C334.045 304.053 330.898 305.704 327.812 304.995L264.437 290.433C261.458 289.748 258.418 291.271 257.111 294.035C238.245 333.921 209.088 367.99 173.063 392.817C170.465 394.608 169.479 397.996 170.786 400.867L197.396 459.324C198.739 462.275 197.667 465.77 194.867 467.403C176.723 477.988 157.453 486.868 137.269 493.802C134.193 494.858 130.837 493.373 129.489 490.412L102.931 432.065C101.617 429.177 98.388 427.698 95.3201 428.506C77.0811 433.309 58.0272 436.072 38.3996 436.566C34.8661 436.655 32 433.781 32 430.246V368.38C32 364.845 34.8665 361.992 38.3988 361.865C48.9313 361.485 59.2252 360.172 69.2088 357.997C94.2719 352.547 117.319 341.695 137.056 326.737C156.444 312.078 172.647 293.461 184.494 272.081C196.416 250.552 203.932 226.236 205.774 200.352C206.072 196.195 206.222 191.989 206.222 187.758C206.222 181.827 205.928 175.97 205.342 170.195C204.947 166.31 207.933 162.844 211.838 162.844H273.854C277.141 162.844 279.903 165.334 280.155 168.612C280.64 174.928 280.888 181.314 280.888 187.758C280.888 195.757 280.503 203.675 279.757 211.488C279.447 214.742 281.561 217.755 284.747 218.486L346.534 232.661Z" fill="white"/>
<path d="M342.786 97.4295C345.086 105.359 338.982 113.067 330.726 113.067H197.538C192.597 113.067 188.133 110.202 185.807 105.843C178.223 91.6301 168.728 78.5955 157.663 67.0802C148.673 57.7248 154.863 38.4 167.837 38.4H311.332C316.103 38.4 320.496 41.0434 322.599 45.3252C330.757 61.9335 337.544 79.3532 342.786 97.4295Z" fill="white"/>
<path d="M442.667 113.092C463.285 113.092 480 96.3769 480 75.7583C480 55.1397 463.285 38.425 442.667 38.425C422.048 38.425 405.334 55.1397 405.334 75.7583C405.334 96.3769 422.048 113.092 442.667 113.092Z" fill="white"/>
</svg>
