
<svg version="1.1" xmlns="http://www.w3.org/2000/svg" xmlns:xlink="http://www.w3.org/1999/xlink" x="0px" y="0px" width="65.6px"
	 height="69.5px" viewBox="0 0 65.6 69.5" style="overflow:visible;enable-background:new 0 0 65.6 69.5;" xml:space="preserve">
<style type="text/css">
	.st0{fill:#FFFFFF;}
</style>
<defs>
</defs>
<path class="st0" d="M60,11.2c3.09,0,5.6-2.51,5.6-5.6C65.6,2.51,63.09,0,60,0s-5.6,2.51-5.6,5.6C54.4,8.69,56.91,11.2,60,11.2z"/>
<path class="st0" d="M45.06,21.8c0-2.53-0.22-5-0.65-7.4H33.66c0.56,2.37,0.87,4.85,0.87,7.4c0,1.54-0.11,3.06-0.32,4.55
	c-0.61,4.32-2.1,8.35-4.27,11.92c-2.23,3.67-5.19,6.86-8.67,9.35c-3.39,2.44-7.29,4.22-11.5,5.16c-2.25,0.51-4.59,0.77-6.99,0.77
	c-0.37,0-0.74-0.01-1.11-0.02C0.75,53.49,0,54.22,0,55.13v7.31c0,0.87,0.69,1.59,1.56,1.61c0.4,0.01,0.81,0.02,1.22,0.02
	c3.78,0,7.45-0.5,10.93-1.43l2.34,5.84c0.31,0.78,1.18,1.2,1.98,0.94c3.11-0.99,6.09-2.29,8.9-3.84c0.71-0.39,1.02-1.25,0.72-2.01
	l-2.39-5.97c5.87-3.69,10.77-8.79,14.22-14.82l5.61,2.65c0.78,0.37,1.72,0.05,2.12-0.72c1.48-2.86,2.69-5.87,3.6-9.02
	c0.22-0.76-0.15-1.57-0.86-1.9L44.05,31C44.71,28.04,45.06,24.96,45.06,21.8z"/>
<path class="st0" d="M51.24,9.94c-0.77-3.06-1.82-6-3.13-8.8c-0.26-0.56-0.83-0.91-1.45-0.91h-17.5c-1.34,0-2.09,1.54-1.27,2.59
	c2.11,2.72,3.79,5.79,4.93,9.11h16.86C50.71,11.93,51.49,10.96,51.24,9.94z"/>
</svg>
