<svg width="73" height="76" viewBox="0 0 73 76" fill="none" xmlns="http://www.w3.org/2000/svg">
<path d="M51.2522 32.6022C51.7806 32.7235 52.1291 33.2295 52.0428 33.7647C51.486 37.2184 50.5937 40.5583 49.398 43.7522C49.2172 44.2354 48.7043 44.5045 48.2015 44.3889L37.8748 42.016C37.3893 41.9044 36.894 42.1526 36.681 42.6029C33.6069 49.1023 28.8558 54.6537 22.9857 58.6992C22.5624 58.9909 22.4018 59.5431 22.6147 60.0109L26.9507 69.5362C27.1696 70.017 26.9949 70.5866 26.5386 70.8528C23.5821 72.5775 20.4421 74.0245 17.1532 75.1542C16.652 75.3264 16.1051 75.0844 15.8855 74.602L11.558 65.0945C11.3438 64.624 10.8177 64.3828 10.3178 64.5145C7.3458 65.2972 4.24104 65.7473 1.04279 65.8279C0.467019 65.8424 0 65.3741 0 64.7981V54.7172C0 54.1412 0.467086 53.6763 1.04267 53.6556C2.75889 53.5938 4.43625 53.3798 6.06304 53.0254C10.147 52.1373 13.9024 50.3691 17.1185 47.9317C20.2777 45.543 22.9179 42.5094 24.8483 39.0257C26.7909 35.5176 28.0157 31.5554 28.3158 27.3376C28.3645 26.6603 28.3888 25.9749 28.3888 25.2855C28.3888 24.3192 28.341 23.3648 28.2454 22.4237C28.1811 21.7907 28.6677 21.2259 29.3039 21.2259H39.4092C39.9449 21.2259 40.3949 21.6316 40.4359 22.1657C40.515 23.1949 40.5555 24.2354 40.5555 25.2855C40.5555 26.5889 40.4926 27.8792 40.3712 29.1522C40.3206 29.6824 40.6651 30.1735 41.1843 30.2926L51.2522 32.6022Z" fill="white"/>
<path d="M50.6416 10.5668C51.0164 11.8589 50.0217 13.1148 48.6764 13.1148H26.9738C26.1687 13.1148 25.4414 12.6481 25.0624 11.9377C23.8265 9.6218 22.2793 7.49786 20.4763 5.62149C19.0115 4.09706 20.0201 0.948151 22.1342 0.948151H45.5162C46.2936 0.948151 47.0095 1.37889 47.3522 2.07658C48.6815 4.78285 49.7873 7.62132 50.6416 10.5668Z" fill="white"/>
<path d="M66.9166 13.1189C70.2763 13.1189 72.9999 10.3953 72.9999 7.03553C72.9999 3.6758 70.2763 0.952209 66.9166 0.952209C63.5568 0.952209 60.8333 3.6758 60.8333 7.03553C60.8333 10.3953 63.5568 13.1189 66.9166 13.1189Z" fill="white"/>
</svg>
