<svg width="66" height="70" viewBox="0 0 66 70" fill="none" xmlns="http://www.w3.org/2000/svg">
<path d="M60 11.6C63.0928 11.6 65.6 9.09282 65.6 6.00002C65.6 2.90723 63.0928 0.400024 60 0.400024C56.9072 0.400024 54.4 2.90723 54.4 6.00002C54.4 9.09282 56.9072 11.6 60 11.6Z" fill="white"/>
<path d="M45.0556 22.1977C45.0556 19.6715 44.8325 17.2 44.4072 14.8H33.658C34.2222 17.1747 34.5254 19.6504 34.5254 22.1977C34.5254 23.7387 34.4159 25.2587 34.2012 26.745C33.5865 31.0606 32.1002 35.0942 29.9318 38.6604C27.7003 42.3319 24.7446 45.5192 21.2626 48.0117C17.869 50.4496 13.9744 52.2306 9.75974 53.1737C7.51138 53.679 5.1746 53.9442 2.77466 53.9442C2.40415 53.9442 2.03363 53.9358 1.66311 53.9232C0.753664 53.8937 0 54.6221 0 55.5315V62.8408C0 63.7082 0.690508 64.4281 1.55785 64.4534C1.96205 64.466 2.36625 64.4703 2.77466 64.4703C6.55561 64.4703 10.2229 63.9734 13.7091 63.0429L16.0459 68.8828C16.3575 69.6659 17.2248 70.0785 18.029 69.8217C21.1405 68.828 24.1172 67.5354 26.9298 65.9818C27.6414 65.5902 27.9487 64.7271 27.6498 63.9692L25.2625 58.0031C31.136 54.3105 36.0369 49.2117 39.4852 43.1782L45.0935 45.8308C45.8767 46.2013 46.8156 45.8855 47.2156 45.115C48.6934 42.2561 49.9018 39.2415 50.8113 36.0963C51.0302 35.3384 50.6639 34.53 49.9523 34.1932L44.0493 31.4017C44.7062 28.4418 45.0556 25.3597 45.0556 22.1977Z" fill="white"/>
<path d="M51.2365 10.345C50.466 7.28825 49.4134 4.34518 48.1082 1.54525C47.8472 0.985267 47.2745 0.631592 46.6556 0.631592H29.1571C27.8182 0.631592 27.0646 2.16839 27.8856 3.22521C29.995 5.94513 31.6707 9.01452 32.8118 12.3323H49.6745C50.7144 12.3323 51.4934 11.3555 51.2365 10.345Z" fill="white"/>
</svg>
