<svg width="254" height="77" viewBox="0 0 254 77" fill="none" xmlns="http://www.w3.org/2000/svg">
<path d="M69.088 51.616C76.084 51.616 79.164 46.6 79.164 40.484V18.396H72.652V39.956C72.652 44.444 71.156 45.984 68.296 45.984C66.448 45.984 64.732 44.972 63.456 42.596L59.012 45.896C61.168 49.68 64.336 51.616 69.088 51.616ZM97.2198 51.616C100.256 51.616 103.38 50.56 105.8 48.888L103.6 44.928C101.84 46.028 100.08 46.644 98.0558 46.644C94.4038 46.644 91.7638 44.532 91.2358 40.484H106.416C106.592 39.912 106.724 38.724 106.724 37.492C106.724 30.716 103.204 25.744 96.4278 25.744C90.5758 25.744 84.9438 30.716 84.9438 38.68C84.9438 46.82 90.3118 51.616 97.2198 51.616ZM91.1478 36.172C91.6318 32.608 93.9198 30.76 96.5158 30.76C99.6838 30.76 101.18 32.872 101.18 36.172H91.1478ZM128.291 51H134.715V31.464H139.379V26.36H134.715V24.248C134.715 21.52 135.771 20.376 137.707 20.376C138.543 20.376 139.467 20.552 140.347 20.904L141.535 16.108C140.435 15.712 138.763 15.272 136.827 15.272C130.667 15.272 128.291 19.232 128.291 24.38V26.36H119.403V24.688C119.403 22.136 120.679 20.86 122.571 20.86C123.847 20.86 124.683 21.08 125.563 21.476L126.751 16.68C125.563 16.196 123.759 15.756 121.823 15.756C115.531 15.756 112.935 19.628 112.935 24.688V26.404L109.635 26.668V31.464H112.935V51H119.403V31.464H128.291V51ZM145.659 60.9C151.159 60.9 153.799 57.556 155.955 51.748L164.711 26.36H158.507L155.119 37.8C154.547 40.088 153.931 42.464 153.359 44.752H153.139C152.435 42.376 151.819 40 151.071 37.8L147.155 26.36H140.643L150.235 50.56L149.795 52.012C149.091 54.168 147.683 55.752 145.175 55.752C144.603 55.752 143.899 55.576 143.459 55.444L142.271 60.416C143.239 60.724 144.207 60.9 145.659 60.9ZM168.769 51H175.149V44.752L178.625 40.792L184.609 51H191.605L182.365 36.524L190.813 26.36H183.729L175.325 36.964H175.149V15.888H168.769V51ZM195.41 51H201.878V34.06C203.682 32.256 204.958 31.288 206.982 31.288C209.402 31.288 210.458 32.608 210.458 36.436V51H216.926V35.644C216.926 29.44 214.638 25.744 209.314 25.744C205.97 25.744 203.55 27.504 201.57 29.352L201.878 24.732V15.888H195.41V51ZM233.85 51.616C240.01 51.616 245.686 46.864 245.686 38.68C245.686 30.496 240.01 25.744 233.85 25.744C227.69 25.744 222.014 30.496 222.014 38.68C222.014 46.864 227.69 51.616 233.85 51.616ZM233.85 46.336C230.506 46.336 228.614 43.344 228.614 38.68C228.614 34.06 230.506 31.024 233.85 31.024C237.194 31.024 239.086 34.06 239.086 38.68C239.086 43.344 237.194 46.336 233.85 46.336Z" fill="white"/>
<rect y="8" width="50" height="50" rx="3" fill="#FF4C29"/>
<path d="M42.5 19C44.433 19 46 17.433 46 15.5C46 13.567 44.433 12 42.5 12C40.567 12 39 13.567 39 15.5C39 17.433 40.567 19 42.5 19Z" fill="white"/>
<path d="M33.1598 25.9128C33.1598 24.3339 33.0203 22.7892 32.7545 21.2892H26.0363C26.3889 22.7734 26.5784 24.3207 26.5784 25.9128C26.5784 26.8759 26.5099 27.8259 26.3757 28.7548C25.9915 31.4521 25.0626 33.9731 23.7074 36.202C22.3127 38.4966 20.4654 40.4887 18.2891 42.0465C16.1681 43.5702 13.734 44.6833 11.0998 45.2728C9.69461 45.5886 8.23412 45.7543 6.73416 45.7543C6.50259 45.7543 6.27102 45.7491 6.03945 45.7412C5.47104 45.7228 5 46.178 5 46.7464V51.3147C5 51.8568 5.43157 52.3068 5.97366 52.3226C6.22628 52.3305 6.47891 52.3331 6.73416 52.3331C9.09726 52.3331 11.3893 52.0226 13.5682 51.441L15.0287 55.0909C15.2234 55.5804 15.7655 55.8383 16.2681 55.6778C18.2128 55.0567 20.0733 54.2488 21.8311 53.2778C22.2759 53.0331 22.4679 52.4936 22.2811 52.02L20.789 48.2911C24.46 45.9833 27.5231 42.7965 29.6783 39.0256L33.1834 40.6834C33.6729 40.915 34.2597 40.7176 34.5097 40.2361C35.4334 38.4493 36.1886 36.5651 36.757 34.5994C36.8939 34.1257 36.6649 33.6205 36.2202 33.4099L32.5308 31.6653C32.9413 29.8153 33.1598 27.889 33.1598 25.9128Z" fill="white"/>
<path d="M37.0228 18.2156C36.5413 16.3052 35.8834 14.4657 35.0676 12.7158C34.9045 12.3658 34.5466 12.1447 34.1597 12.1447H23.2232C22.3864 12.1447 21.9153 13.1052 22.4285 13.7658C23.7469 15.4657 24.7942 17.3841 25.5073 19.4577H36.0465C36.6965 19.4577 37.1833 18.8472 37.0228 18.2156Z" fill="white"/>
</svg>
