<svg width="70" height="70" viewBox="0 0 70 70" fill="none" xmlns="http://www.w3.org/2000/svg">
<path d="M57.4 5.6001H12.6C8.73599 5.6001 5.59999 8.7361 5.59999 12.6001V57.4001C5.59999 61.2641 8.73599 64.4001 12.6 64.4001H57.4C61.264 64.4001 64.4 61.2641 64.4 57.4001V12.6001C64.4 8.7361 61.264 5.6001 57.4 5.6001ZM51.8 26.6001H49C46.004 26.6001 44.8 27.3001 44.8 29.4001V33.6001H51.8L50.4 40.6001H44.8V61.6001H37.8V40.6001H32.2V33.6001H37.8V29.4001C37.8 23.8001 40.6 19.6001 46.2 19.6001C50.26 19.6001 51.8 21.0001 51.8 21.0001V26.6001Z" fill="white"/>
</svg>
