<svg width="70" height="70" viewBox="0 0 70 70" fill="none" xmlns="http://www.w3.org/2000/svg">
<path d="M31.7916 6.12497C18.375 7.58331 7.58331 18.375 6.12498 31.5C4.66665 45.2083 12.5416 57.4583 24.5 62.125C25.375 62.4166 26.25 61.8333 26.25 60.6666V56C26.25 56 25.0833 56.2916 23.625 56.2916C19.5416 56.2916 17.7916 52.7916 17.5 50.75C17.2083 49.5833 16.625 48.7083 15.75 47.8333C14.875 47.5416 14.5833 47.5416 14.5833 47.25C14.5833 46.6666 15.4583 46.6666 15.75 46.6666C17.5 46.6666 18.9583 48.7083 19.5416 49.5833C21 51.9166 22.75 52.5 23.625 52.5C24.7916 52.5 25.6666 52.2083 26.25 51.9166C26.5416 49.875 27.4166 47.8333 29.1666 46.6666C22.4583 45.2083 17.5 41.4166 17.5 35C17.5 31.7916 18.9583 28.5833 21 26.25C20.7083 25.6666 20.4166 24.2083 20.4166 22.1666C20.4166 21 20.4166 19.25 21.2916 17.5C21.2916 17.5 25.375 17.5 29.4583 21.2916C30.9167 20.7083 32.9583 20.4166 35 20.4166C37.0416 20.4166 39.0833 20.7083 40.8333 21.2916C44.625 17.5 49 17.5 49 17.5C49.5833 19.25 49.5833 21 49.5833 22.1666C49.5833 24.5 49.2916 25.6666 49 26.25C51.0416 28.5833 52.5 31.5 52.5 35C52.5 41.4166 47.5416 45.2083 40.8333 46.6666C42.5833 48.125 43.75 50.75 43.75 53.375V60.9583C43.75 61.8333 44.625 62.7083 45.7916 62.4166C56.5833 58.0416 64.1666 47.5416 64.1666 35.2916C64.1666 17.7916 49.2916 4.08331 31.7916 6.12497Z" fill="white"/>
</svg>
