<svg width="70" height="70" viewBox="0 0 70 70" fill="none" xmlns="http://www.w3.org/2000/svg">
<path d="M65.625 23.625L58.3333 27.6354L51.0417 34.5625V58.3333H61.25C63.6664 58.3333 65.625 56.3748 65.625 53.9583V23.625Z" fill="white"/>
<path d="M4.375 23.625L9.64542 26.1187L18.9583 34.5625V58.3333H8.75C6.33354 58.3333 4.375 56.3748 4.375 53.9583V23.625Z" fill="white"/>
<path d="M51.0417 16.3333L35 28.3645L18.9583 16.3333L17.5 24.7916L18.9583 34.5624L35 46.5937L51.0417 34.5624L52.5 24.7916L51.0417 16.3333Z" fill="white"/>
<path d="M4.375 17.9345V23.625L18.9583 34.5625V16.3333L14.4025 12.9193C13.3175 12.1056 11.9992 11.6666 10.6429 11.6666C7.18083 11.6666 4.375 14.4725 4.375 17.9345Z" fill="white"/>
<path d="M65.625 17.9345V23.625L51.0417 34.5625V16.3333L55.5975 12.9193C56.6825 12.1056 58.0008 11.6666 59.3571 11.6666C62.8192 11.6666 65.625 14.4725 65.625 17.9345Z" fill="white"/>
</svg>
