<svg width="24" height="24" viewBox="0 0 24 24" fill="none" xmlns="http://www.w3.org/2000/svg">
<g opacity="0.9" clip-path="url(#clip0)">
<path d="M6.52941 23L6.08278 23.2248L6.51017 24.074L6.9677 23.2406L6.52941 23ZM12.2941 12.5L12.7661 12.3351L12.396 11.2756L11.8558 12.2594L12.2941 12.5ZM15.1765 20.75L14.7044 20.9149L15.1351 22.1476L15.6379 20.9425L15.1765 20.75ZM23 2L18.4105 5.5028L23.7387 7.72604L23 2ZM1.55337 14.2248L6.08278 23.2248L6.97604 22.7752L2.44663 13.7752L1.55337 14.2248ZM6.9677 23.2406L12.7324 12.7406L11.8558 12.2594L6.09112 22.7594L6.9677 23.2406ZM11.8221 12.6649L14.7044 20.9149L15.6485 20.5851L12.7661 12.3351L11.8221 12.6649ZM15.6379 20.9425L21.7286 6.34552L20.8057 5.96044L14.715 20.5575L15.6379 20.9425Z" fill="white"/>
</g>
<defs>
<clipPath id="clip0">
<rect width="24" height="24" fill="white"/>
</clipPath>
</defs>
</svg>
