<svg width="70" height="70" viewBox="0 0 70 70" fill="none" xmlns="http://www.w3.org/2000/svg">
<path d="M67.2365 16.0709C64.9746 17.0727 62.5421 17.7407 59.9754 18.0571C62.5844 16.5084 64.5925 14.038 65.5346 11.1184C63.0933 12.549 60.3881 13.6005 57.5108 14.1546C55.2125 11.7192 51.9342 10.2084 48.3029 10.2084C41.3277 10.2084 35.6723 15.8127 35.6723 22.7238C35.6723 23.7023 35.7875 24.6546 36.0019 25.5792C25.5077 25.0528 16.1992 20.0638 9.97208 12.4921C8.87833 14.3427 8.26292 16.5084 8.26292 18.795C8.26292 23.1394 10.4869 26.9646 13.879 29.2177C11.8081 29.155 9.85979 28.579 8.15354 27.6544C8.15354 27.6923 8.15354 27.7477 8.15354 27.8017C8.15354 33.8727 12.5081 38.9288 18.2802 40.0794C17.2258 40.3682 16.1102 40.5286 14.961 40.5286C14.1458 40.5286 13.351 40.4367 12.581 40.2982C14.1881 45.2594 18.8504 48.8863 24.3746 48.9942C20.0521 52.3455 14.6081 54.3521 8.68875 54.3521C7.66646 54.3521 6.66604 54.2938 5.67729 54.1742C11.2729 57.7165 17.9127 59.7917 25.041 59.7917C48.2679 59.7917 60.9758 40.7182 60.9758 24.1705C60.9758 23.628 60.9583 23.0884 60.9335 22.5546C63.4127 20.8032 65.5492 18.5953 67.2365 16.0709Z" fill="white"/>
</svg>
